<svg xmlns="http://www.w3.org/2000/svg" viewBox="0 0 28.01 18.79">
<title>MenuIcon</title><g id="MenuIcon">
<path id="MenuIcon-2" data-name="MenuIcon" d="M26.71,7.4H1.31A1.28,1.28,0,0,1,0,6.12H0A1.27,1.27,0,0,1,1.31,4.85h25.4A1.28,1.28,0,0,1,28,6.12h0A1.28,1.28,0,0,1,26.71,7.4Zm1.22,6.84h0A1.28,1.28,0,0,0,26.65,13H1.25A1.28,1.28,0,0,0,0,14.24H0a1.29,1.29,0,0,0,1.28,1.28h25.4A1.28,1.28,0,0,0,27.93,14.24Zm0,8.11h0a1.28,1.28,0,0,0-1.28-1.28H1.25A1.29,1.29,0,0,0,0,22.35H0a1.28,1.28,0,0,0,1.28,1.28h25.4A1.28,1.28,0,0,0,27.93,22.35Z" transform="translate(0.03 -4.85)"/></g></svg>